# xmcd
#
# Track frame offsets:
#	150
#	25962
#	44767
#	65795
#	84618
#	101720
#	117790
#	139602
#	160599
#	180474
#	199927
#	223970
#	249150
#	270445
#
# Disc length: 3880 seconds
#
# Revision: 1
# Processed by: cddbd v1.5.2PL0 Copyright (c) Steve Scherf et al.
# Submitted via: EasyCDDAExtractor 12.0.0.1
#
DISCID=c90f260e
DTITLE=장혜진 - 불후의 명작 3 CD (Vitamin Entertainment-2009)-CD1
DYEAR=2008
DGENRE=Ballad
TTITLE0=키작은 하늘
TTITLE1=아름다운 날들
TTITLE2=꿈의 대화
TTITLE3=영원으로
TTITLE4=1000 years
TTITLE5=완전한 사랑
TTITLE6=사랑해 사랑해 사랑해
TTITLE7=나는 요...
TTITLE8=비온 뒤
TTITLE9=다시 돌아와...
TTITLE10=雨 (우)
TTITLE11=I Don't Cry
TTITLE12=니가 날 알겠니
TTITLE13=간청
EXTD=
EXTT0=
EXTT1=
EXTT2=
EXTT3=
EXTT4=
EXTT5=
EXTT6=
EXTT7=
EXTT8=
EXTT9=
EXTT10=
EXTT11=
EXTT12=
EXTT13=
PLAYORDER=
